<svg width="54" height="47" viewBox="0 0 54 47" fill="none" xmlns="http://www.w3.org/2000/svg">
<path d="M4.928 14.192C7.92 14.192 9.2 11.36 9.2 8.672C9.2 5.984 7.92 3.168 4.928 3.168C1.936 3.168 0.656 5.984 0.656 8.672C0.656 11.36 1.936 14.192 4.928 14.192ZM4.928 12.528C3.184 12.528 2.56 10.704 2.56 8.672C2.56 6.64 3.184 4.832 4.928 4.832C6.672 4.832 7.296 6.64 7.296 8.672C7.296 10.704 6.672 12.528 4.928 12.528ZM17.0256 14V3.328H15.3936L12.3216 6.432L13.4096 7.568L15.1536 5.76V14H17.0256Z" fill="white"/>
<path d="M36.928 42.192C39.92 42.192 41.2 39.36 41.2 36.672C41.2 33.984 39.92 31.168 36.928 31.168C33.936 31.168 32.656 33.984 32.656 36.672C32.656 39.36 33.936 42.192 36.928 42.192ZM36.928 40.528C35.184 40.528 34.56 38.704 34.56 36.672C34.56 34.64 35.184 32.832 36.928 32.832C38.672 32.832 39.296 34.64 39.296 36.672C39.296 38.704 38.672 40.528 36.928 40.528ZM51.4896 42V39.584H52.9136V37.936H51.4896V31.328H48.9136L44.5296 38.08V39.584H49.6176V42H51.4896ZM49.6176 37.936H46.3696L49.6176 33.008V37.936Z" fill="white"/>
<path d="M44 7L10 41" stroke="#26C6D0" stroke-linecap="square"/>
</svg>
